<svg width="21" height="20" viewBox="0 0 21 20" fill="none" xmlns="http://www.w3.org/2000/svg">
<path fill-rule="evenodd" clip-rule="evenodd" d="M1.75 2.5C1.75 2.08579 2.08579 1.75 2.5 1.75H17.5C17.9142 1.75 18.25 2.08579 18.25 2.5V6C18.25 6.41421 18.5858 6.75 19 6.75C19.4142 6.75 19.75 6.41421 19.75 6V2.5C19.75 1.25736 18.7426 0.25 17.5 0.25H2.5C1.25736 0.25 0.25 1.25736 0.25 2.5V7.5C0.25 8.07627 0.466641 8.60193 0.822922 9C0.466641 9.39807 0.25 9.92373 0.25 10.5V15.5C0.25 16.7426 1.25736 17.75 2.5 17.75H7C7.41421 17.75 7.75 17.4142 7.75 17C7.75 16.5858 7.41421 16.25 7 16.25H2.5C2.08579 16.25 1.75 15.9142 1.75 15.5V10.5C1.75 10.0858 2.08579 9.75 2.5 9.75H7C7.41421 9.75 7.75 9.41421 7.75 9C7.75 8.58579 7.41421 8.25 7 8.25H2.5C2.08579 8.25 1.75 7.91421 1.75 7.5V2.5ZM5.25 4.51251C5.25 4.0983 4.91421 3.76251 4.5 3.76251C4.08579 3.76251 3.75 4.0983 3.75 4.51251V5.51251C3.75 5.92673 4.08579 6.26251 4.5 6.26251C4.91421 6.26251 5.25 5.92673 5.25 5.51251V4.51251ZM10.25 5.01251C10.25 4.5983 10.5858 4.26251 11 4.26251H16.0125C16.4267 4.26251 16.7625 4.5983 16.7625 5.01251C16.7625 5.42673 16.4267 5.76251 16.0125 5.76251H11C10.5858 5.76251 10.25 5.42673 10.25 5.01251ZM4.4873 11.7375C4.90152 11.7375 5.2373 12.0733 5.2373 12.4875V13.4875C5.2373 13.9018 4.90152 14.2375 4.4873 14.2375C4.07309 14.2375 3.7373 13.9018 3.7373 13.4875V12.4875C3.7373 12.0733 4.07309 11.7375 4.4873 11.7375ZM7.5 3.76251C7.91421 3.76251 8.25 4.0983 8.25 4.51251V5.51251C8.25 5.92673 7.91421 6.26251 7.5 6.26251C7.08579 6.26251 6.75 5.92673 6.75 5.51251V4.51251C6.75 4.0983 7.08579 3.76251 7.5 3.76251ZM14.7803 13.2197L13.5303 11.9697C13.2374 11.6768 12.7626 11.6768 12.4697 11.9697C12.1768 12.2626 12.1768 12.7374 12.4697 13.0303L13.1893 13.75L12.4697 14.4697C12.1768 14.7626 12.1768 15.2374 12.4697 15.5303C12.7626 15.8232 13.2374 15.8232 13.5303 15.5303L14.7803 14.2803C15.0732 13.9874 15.0732 13.5126 14.7803 13.2197ZM15.25 15.5C15.25 15.0858 15.5858 14.75 16 14.75H17C17.4142 14.75 17.75 15.0858 17.75 15.5C17.75 15.9142 17.4142 16.25 17 16.25H16C15.5858 16.25 15.25 15.9142 15.25 15.5ZM13 8.25C10.9289 8.25 9.25 9.92893 9.25 12V16C9.25 18.0711 10.9289 19.75 13 19.75H17C19.0711 19.75 20.75 18.0711 20.75 16V12C20.75 9.92893 19.0711 8.25 17 8.25H13ZM10.75 12C10.75 10.7574 11.7574 9.75 13 9.75H17C18.2426 9.75 19.25 10.7574 19.25 12V16C19.25 17.2426 18.2426 18.25 17 18.25H13C11.7574 18.25 10.75 17.2426 10.75 16V12Z" fill="#343844"/>
</svg>
