<svg width="21" height="21" viewBox="0 0 21 21" fill="none" xmlns="http://www.w3.org/2000/svg">
<path fill-rule="evenodd" clip-rule="evenodd" d="M2.33325 0.25C1.36675 0.25 0.583252 1.0335 0.583252 2V5C0.583252 5.9665 1.36675 6.75 2.33325 6.75H3.08325V12.25H2.33325C1.36675 12.25 0.583252 13.0335 0.583252 14V17C0.583252 17.9665 1.36675 18.75 2.33325 18.75H5.33325C6.29975 18.75 7.08325 17.9665 7.08325 17V16.25H8.33325C8.74747 16.25 9.08325 15.9142 9.08325 15.5C9.08325 15.0858 8.74747 14.75 8.33325 14.75H7.08325V14C7.08325 13.0335 6.29975 12.25 5.33325 12.25H4.58325V6.75H5.33325C6.29975 6.75 7.08325 5.9665 7.08325 5V4.25H12.5833V5C12.5833 5.9665 13.3668 6.75 14.3333 6.75H15.0833V8C15.0833 8.41421 15.419 8.75 15.8333 8.75C16.2475 8.75 16.5833 8.41421 16.5833 8V6.75H17.3333C18.2998 6.75 19.0833 5.9665 19.0833 5V2C19.0833 1.0335 18.2998 0.25 17.3333 0.25H14.3333C13.3668 0.25 12.5833 1.0335 12.5833 2V2.75H7.08325V2C7.08325 1.0335 6.29975 0.25 5.33325 0.25H2.33325ZM15.8333 5.25H17.3333C17.4713 5.25 17.5833 5.13807 17.5833 5V2C17.5833 1.86193 17.4713 1.75 17.3333 1.75H14.3333C14.1952 1.75 14.0833 1.86193 14.0833 2V3.5V5C14.0833 5.13807 14.1952 5.25 14.3333 5.25H15.8333ZM5.58325 14V15.5V17C5.58325 17.1381 5.47132 17.25 5.33325 17.25H2.33325C2.19518 17.25 2.08325 17.1381 2.08325 17V14C2.08325 13.8619 2.19518 13.75 2.33325 13.75H3.83325H5.33325C5.47132 13.75 5.58325 13.8619 5.58325 14ZM5.58325 2V3.5V5C5.58325 5.13807 5.47132 5.25 5.33325 5.25H3.83325H2.33325C2.19518 5.25 2.08325 5.13807 2.08325 5V2C2.08325 1.86193 2.19518 1.75 2.33325 1.75H5.33325C5.47132 1.75 5.58325 1.86193 5.58325 2ZM14.3333 16C13.919 16 13.5833 16.3358 13.5833 16.75C13.5833 17.1642 13.919 17.5 14.3333 17.5H16.3333C16.7475 17.5 17.0833 17.1642 17.0833 16.75C17.0833 16.3358 16.7475 16 16.3333 16H14.3333ZM13.5833 14.25C13.5833 13.8358 13.919 13.5 14.3333 13.5H16.3333C16.7475 13.5 17.0833 13.8358 17.0833 14.25C17.0833 14.6642 16.7475 15 16.3333 15H14.3333C13.919 15 13.5833 14.6642 13.5833 14.25ZM13.3333 10.25C11.8145 10.25 10.5833 11.4812 10.5833 13V18C10.5833 19.5188 11.8145 20.75 13.3333 20.75H17.3333C18.852 20.75 20.0833 19.5188 20.0833 18V13C20.0833 11.4812 18.852 10.25 17.3333 10.25H13.3333ZM12.0833 13C12.0833 12.3096 12.6429 11.75 13.3333 11.75H17.3333C18.0236 11.75 18.5833 12.3096 18.5833 13V18C18.5833 18.6904 18.0236 19.25 17.3333 19.25H13.3333C12.6429 19.25 12.0833 18.6904 12.0833 18V13Z" fill="#343844"/>
</svg>
