<svg width="21" height="21" viewBox="0 0 21 21" fill="none" xmlns="http://www.w3.org/2000/svg">
<path fill-rule="evenodd" clip-rule="evenodd" d="M2.41663 4C2.41663 2.75736 3.42399 1.75 4.66663 1.75H16.6666C17.9093 1.75 18.9166 2.75736 18.9166 4V6.25H2.41663V4ZM0.916626 7V4C0.916626 1.92893 2.59556 0.25 4.66663 0.25H16.6666C18.7377 0.25 20.4166 1.92893 20.4166 4V7V10C20.4166 10.4142 20.0808 10.75 19.6666 10.75C19.2524 10.75 18.9166 10.4142 18.9166 10V7.75H2.41663V16C2.41663 17.2426 3.42399 18.25 4.66663 18.25H7.66663C8.08084 18.25 8.41663 18.5858 8.41663 19C8.41663 19.4142 8.08084 19.75 7.66663 19.75H4.66663C2.59556 19.75 0.916626 18.0711 0.916626 16V7ZM10.197 3.46466C9.90406 3.17177 9.42918 3.17177 9.13629 3.46466L9.13129 3.46967C8.8384 3.76256 8.8384 4.23743 9.13129 4.53032L9.13629 4.53533C9.42918 4.82822 9.90406 4.82822 10.197 4.53533L10.202 4.53032C10.4948 4.23743 10.4948 3.76256 10.202 3.46967L10.197 3.46466ZM6.63629 3.46466C6.92918 3.17177 7.40406 3.17177 7.69695 3.46466L7.70195 3.46967C7.99484 3.76256 7.99484 4.23743 7.70195 4.53032L7.69695 4.53533C7.40406 4.82822 6.92918 4.82822 6.63629 4.53533L6.63129 4.53032C6.3384 4.23743 6.3384 3.76256 6.63129 3.46967L6.63629 3.46466ZM5.19695 3.46466C4.90406 3.17177 4.42918 3.17177 4.13629 3.46466L4.13129 3.46967C3.8384 3.76256 3.8384 4.23743 4.13129 4.53032L4.13629 4.53533C4.42918 4.82822 4.90406 4.82822 5.19695 4.53533L5.20195 4.53032C5.49484 4.23743 5.49484 3.76256 5.20195 3.46967L5.19695 3.46466ZM11.9078 13.6585C11.9076 13.6585 11.9082 13.657 11.9099 13.6541C11.9088 13.6571 11.9079 13.6585 11.9078 13.6585ZM11.9166 13.6436C11.9283 13.6272 11.9535 13.5973 12.0041 13.5545C12.1382 13.4413 12.3766 13.3056 12.7369 13.177C13.4509 12.922 14.4867 12.75 15.6666 12.75C16.8466 12.75 17.8823 12.922 18.5964 13.177C18.9567 13.3056 19.1951 13.4413 19.3291 13.5545C19.3798 13.5973 19.405 13.6272 19.4166 13.6436V14.8564C19.405 14.8729 19.3798 14.9027 19.3291 14.9455C19.1951 15.0587 18.9567 15.1944 18.5964 15.3231C17.8823 15.578 16.8466 15.75 15.6666 15.75C14.4867 15.75 13.4509 15.578 12.7369 15.3231C12.3766 15.1944 12.1382 15.0587 12.0041 14.9455C11.9535 14.9027 11.9283 14.8729 11.9166 14.8564V13.6436ZM10.4166 14.8929V13.6071C10.4166 13.0789 10.7184 12.6769 11.0364 12.4085C11.3578 12.1371 11.7783 11.9265 12.2324 11.7643C13.1471 11.4377 14.3613 11.25 15.6666 11.25C16.9719 11.25 18.1862 11.4377 19.1008 11.7643C19.5549 11.9265 19.9755 12.1371 20.2969 12.4085C20.6148 12.6769 20.9166 13.0789 20.9166 13.6071V14.8929V18.3929C20.9166 18.9211 20.6148 19.3231 20.2969 19.5915C19.9755 19.8629 19.5549 20.0735 19.1008 20.2357C18.1862 20.5623 16.9719 20.75 15.6666 20.75C14.3613 20.75 13.1471 20.5623 12.2324 20.2357C11.7783 20.0735 11.3578 19.8629 11.0364 19.5915C10.7184 19.3231 10.4166 18.9211 10.4166 18.3929V14.8929ZM19.4166 16.6123V18.3564C19.405 18.3728 19.3798 18.4027 19.3291 18.4455C19.1951 18.5587 18.9567 18.6944 18.5964 18.823C17.8823 19.078 16.8466 19.25 15.6666 19.25C14.4867 19.25 13.4509 19.078 12.7369 18.823C12.3766 18.6944 12.1382 18.5587 12.0041 18.4455C11.9535 18.4027 11.9283 18.3728 11.9166 18.3564V16.6123C12.0194 16.6562 12.125 16.6973 12.2324 16.7357C13.1471 17.0623 14.3613 17.25 15.6666 17.25C16.9719 17.25 18.1862 17.0623 19.1008 16.7357C19.2083 16.6973 19.3138 16.6562 19.4166 16.6123ZM11.9078 18.3415C11.9079 18.3415 11.9088 18.3429 11.9099 18.3459C11.9082 18.343 11.9076 18.3415 11.9078 18.3415ZM19.4255 18.3415C19.4255 18.3415 19.4255 18.3416 19.4254 18.342C19.4252 18.3423 19.425 18.3429 19.4246 18.3436C19.4243 18.3442 19.4239 18.345 19.4234 18.3459C19.4245 18.3429 19.4253 18.3415 19.4255 18.3415ZM19.4255 13.6585C19.4253 13.6585 19.4245 13.6571 19.4234 13.6541C19.4251 13.657 19.4256 13.6585 19.4255 13.6585Z" fill="#343844"/>
</svg>
