<svg width="20" height="20" viewBox="0 0 20 20" fill="none" xmlns="http://www.w3.org/2000/svg">
<path fill-rule="evenodd" clip-rule="evenodd" d="M18.4225 9.99507C18.7154 10.288 18.7154 10.7628 18.4225 11.0557L17.7873 11.6909C17.4944 11.9838 17.0195 11.9838 16.7266 11.6909C16.4337 11.398 16.4337 10.9231 16.7266 10.6303L17.3618 9.99507C17.6547 9.70217 18.1296 9.70217 18.4225 9.99507Z" fill="white" fill-opacity="0.9"/>
<path fill-rule="evenodd" clip-rule="evenodd" d="M11.6908 16.7268C11.9837 17.0196 11.9837 17.4945 11.6908 17.7874L11.0556 18.4226C10.7627 18.7155 10.2878 18.7155 9.99494 18.4226C9.70205 18.1297 9.70205 17.6548 9.99494 17.3619L10.6301 16.7268C10.923 16.4339 11.3979 16.4339 11.6908 16.7268Z" fill="white" fill-opacity="0.9"/>
<path fill-rule="evenodd" clip-rule="evenodd" d="M14.2087 8.24967C14.6229 8.24967 14.9587 8.58546 14.9587 8.99967V9.89795C14.9587 10.3122 14.6229 10.648 14.2087 10.648C13.7945 10.648 13.4587 10.3122 13.4587 9.89795V8.99967C13.4587 8.58546 13.7945 8.24967 14.2087 8.24967Z" fill="white" fill-opacity="0.9"/>
<path fill-rule="evenodd" clip-rule="evenodd" d="M9.99494 9.99507C10.2878 9.70217 10.7627 9.70217 11.0556 9.99507L11.6908 10.6303C11.9837 10.9231 11.9837 11.398 11.6908 11.6909C11.3979 11.9838 10.923 11.9838 10.6301 11.6909L9.99494 11.0557C9.70205 10.7628 9.70205 10.288 9.99494 9.99507Z" fill="white" fill-opacity="0.9"/>
<path fill-rule="evenodd" clip-rule="evenodd" d="M8.24955 14.2088C8.24955 13.7946 8.58534 13.4588 8.99955 13.4588H9.89783C10.312 13.4588 10.6478 13.7946 10.6478 14.2088C10.6478 14.623 10.312 14.9588 9.89783 14.9588H8.99955C8.58534 14.9588 8.24955 14.623 8.24955 14.2088Z" fill="white" fill-opacity="0.9"/>
<path fill-rule="evenodd" clip-rule="evenodd" d="M13.0786 13.0787C13.4277 12.7296 13.9441 12.6077 14.4125 12.7638L18.8623 14.2471C19.3452 14.4081 19.6903 14.8354 19.7458 15.3414C19.8014 15.8474 19.5573 16.3395 19.1208 16.6014L17.6226 17.5003C17.5724 17.5304 17.5303 17.5725 17.5002 17.6227L16.6013 19.1209C16.3394 19.5574 15.8474 19.8015 15.3414 19.7459C14.8353 19.6904 14.408 19.3454 14.247 18.8624L12.7637 14.4126C12.6076 13.9442 12.7295 13.4278 13.0786 13.0787ZM14.311 14.3111L17.9826 15.535L16.8509 16.214C16.5895 16.3709 16.3708 16.5896 16.214 16.851L15.5349 17.9827L14.311 14.3111Z" fill="white" fill-opacity="0.9"/>
<path fill-rule="evenodd" clip-rule="evenodd" d="M16.4932 16.4933C16.7861 16.2004 17.261 16.2004 17.5539 16.4933L19.2499 18.1894C19.5428 18.4823 19.5428 18.9572 19.2499 19.2501C18.9571 19.543 18.4822 19.543 18.1893 19.2501L16.4932 17.554C16.2003 17.2611 16.2003 16.7862 16.4932 16.4933Z" fill="white" fill-opacity="0.9"/>
<path fill-rule="evenodd" clip-rule="evenodd" d="M0.246216 4.998C0.246216 4.58379 0.582002 4.248 0.996216 4.248H19.0037C19.4179 4.248 19.7537 4.58379 19.7537 4.998C19.7537 5.41222 19.4179 5.748 19.0037 5.748H0.996216C0.582002 5.748 0.246216 5.41222 0.246216 4.998Z" fill="white" fill-opacity="0.9"/>
<path fill-rule="evenodd" clip-rule="evenodd" d="M3.99747 1.74634C2.75413 1.74634 1.74622 2.75426 1.74622 3.99759V12.0009C1.74622 13.2443 2.75413 14.2522 3.99747 14.2522H4.99788C5.4121 14.2522 5.74788 14.588 5.74788 15.0022C5.74788 15.4164 5.4121 15.7522 4.99788 15.7522H3.99747C1.92571 15.7522 0.246216 14.0727 0.246216 12.0009V3.99759C0.246216 1.92583 1.92571 0.246338 3.99747 0.246338H16.0025C18.0742 0.246338 19.7537 1.92583 19.7537 3.99759V6.99884C19.7537 7.41305 19.4179 7.74884 19.0037 7.74884C18.5895 7.74884 18.2537 7.41305 18.2537 6.99884V3.99759C18.2537 2.75426 17.2458 1.74634 16.0025 1.74634H3.99747Z" fill="white" fill-opacity="0.9"/>
</svg>
