<svg width="16" height="17" viewBox="0 0 16 17" fill="none" xmlns="http://www.w3.org/2000/svg">
<path d="M7.77273 0.258057C8.60899 4.39559 11.6511 7.62764 15.5455 8.51612C11.6511 9.4046 8.60899 12.6367 7.77273 16.7742C6.93646 12.6367 3.89436 9.4046 0 8.51612C3.89436 7.62764 6.93646 4.39559 7.77273 0.258057Z" fill="#387FF5"/>
<path d="M13.5093 0C13.7245 1.00206 14.5072 1.78482 15.5093 2C14.5072 2.21518 13.7245 2.99794 13.5093 4C13.2941 2.99794 12.5113 2.21518 11.5093 2C12.5113 1.78482 13.2941 1.00206 13.5093 0Z" fill="#387FF5"/>
<path d="M2.00928 13C2.17066 13.7515 2.75773 14.3386 3.50928 14.5C2.75773 14.6614 2.17066 15.2485 2.00928 16C1.84789 15.2485 1.26082 14.6614 0.509277 14.5C1.26082 14.3386 1.84789 13.7515 2.00928 13Z" fill="#387FF5"/>
</svg>
